<svg id="Layer_1" data-name="Layer 1" xmlns="http://www.w3.org/2000/svg" width="461.87" height="143.49" viewBox="0 0 461.87 143.49"><title>black</title><path d="M90.43,65Q86.26,68.76,81,73.56T70.36,83.44Q65,88.51,60.06,93.53t-8.6,9.07a16.63,16.63,0,0,1-1.28,3.69,11.22,11.22,0,0,1-5,5.12,7,7,0,0,1-3.25.8,13.29,13.29,0,0,1-1.44-.11.89.89,0,0,1-.91-1,1.27,1.27,0,0,1,.43-1c.28-.25.62-.59,1-1a5.43,5.43,0,0,0,1-1.82,10.34,10.34,0,0,0,.43-3.42A12.14,12.14,0,0,0,40.73,97a12.39,12.39,0,0,0-4.38-4.06,16.42,16.42,0,0,0-5.66-1.87A41.85,41.85,0,0,0,25,90.64a15,15,0,0,0-3.73.65l-5.08,1.38q-2.72.75-5.55,1.39a23.73,23.73,0,0,1-5.28.64,23.28,23.28,0,0,1-3.63-.27A1.75,1.75,0,0,1,0,92.57a2.14,2.14,0,0,1,.75-1.71,6.82,6.82,0,0,1,3.15-1,65.45,65.45,0,0,1,6.83-.53q4.42-.16,11.9-.16a15,15,0,0,0,9.51-3.58,47.24,47.24,0,0,0,8.8-9.66,137.38,137.38,0,0,0,8.65-14q4.32-7.95,9-16.71a50.11,50.11,0,0,1-5.87-1.92,22.53,22.53,0,0,1-5.5-3.1,15.58,15.58,0,0,1-4.11-4.75,13.28,13.28,0,0,1-1.6-6.67,12.14,12.14,0,0,1,3.26-8.81q3.26-3.36,9.34-3.36a17.44,17.44,0,0,1,3.1.27,7.51,7.51,0,0,1,2.56.9l-.43,1A15.16,15.16,0,0,0,57,18a16.25,16.25,0,0,0-2.72-.21,13.36,13.36,0,0,0-5.18.91,9.7,9.7,0,0,0-3.58,2.45,9.9,9.9,0,0,0-2,3.53,13.39,13.39,0,0,0-.64,4.11,11.56,11.56,0,0,0,1.34,5.5,15,15,0,0,0,3.63,4.43A22.45,22.45,0,0,0,53.06,42a28.89,28.89,0,0,0,6.3,2,52.91,52.91,0,0,1,7.42-11A58.86,58.86,0,0,1,77,23.7a51.31,51.31,0,0,1,12.17-6.46,38.31,38.31,0,0,1,13.35-2.4,24.27,24.27,0,0,1,4.53.43,13.9,13.9,0,0,1,4.17,1.44,9,9,0,0,1,3.09,2.77,7.6,7.6,0,0,1,1.23,4.44A12.05,12.05,0,0,1,113,31.5a24.12,24.12,0,0,1-6.73,5.81,45.46,45.46,0,0,1-9.34,4.22,100.35,100.35,0,0,1-10.41,2.83A91.8,91.8,0,0,1,76.55,46q-4.69.48-8,.48-3.63,7.16-7.47,13.78a79.27,79.27,0,0,1-8.76,12.27,60.33,60.33,0,0,1-11.1,10A51.87,51.87,0,0,1,26.8,89.36v.22c2.13,0,4.59,0,7.36.16A31.15,31.15,0,0,1,42.06,91a16.84,16.84,0,0,1,6.41,3.47,9.31,9.31,0,0,1,3,6.62q4.17-4.48,9-9.4t9.93-9.77q5.07-4.84,10-9.39c3.31-3,6.42-5.78,9.34-8.28Zm17-43.56A5.4,5.4,0,0,0,106,17.72c-1-1.06-2.61-1.6-5-1.6a17.67,17.67,0,0,0-9.56,3,50.24,50.24,0,0,0-9,7.48,71.29,71.29,0,0,0-7.68,9.45q-3.42,5-5.66,9.07a68,68,0,0,0,7.15-.43,64.67,64.67,0,0,0,8.33-1.44,51.4,51.4,0,0,0,8.38-2.77,30.63,30.63,0,0,0,7.31-4.38,20.82,20.82,0,0,0,5.18-6.25A17.33,17.33,0,0,0,107.41,21.46Z"/><path d="M120.64,55l11.11-.64A45.65,45.65,0,0,1,129,59q-1.81,2.71-4,5.87t-4.32,6.51q-2.19,3.38-4,6.52a50,50,0,0,0-2.93,5.87,12.53,12.53,0,0,0-1.12,4.64,2.36,2.36,0,0,0,2.67,2.67c1.7,0,4-1,6.94-3a61.88,61.88,0,0,0,9.18-7.9q2-2,4.11-4.38t4-4.64q1.92-2.3,3.53-4.27c1.06-1.32,1.92-2.4,2.56-3.26l.75.43q-2.79,3.73-6.41,8.27A118.13,118.13,0,0,1,131.21,82a64.44,64.44,0,0,1-10.09,8.38,17.91,17.91,0,0,1-9.87,3.25A7.4,7.4,0,0,1,106,91.87a5.71,5.71,0,0,1-1.86-4.32,11.54,11.54,0,0,1,.1-1.6,4,4,0,0,1,.32-1.18h-.21a33.43,33.43,0,0,1-7.47,6.3,16.81,16.81,0,0,1-9,2.56,9.26,9.26,0,0,1-4.38-1,8.05,8.05,0,0,1-2.94-2.61,11.84,11.84,0,0,1-1.65-3.74A17.16,17.16,0,0,1,78.36,82a21.57,21.57,0,0,1,2.89-10.47,39.83,39.83,0,0,1,7.26-9.45,37.88,37.88,0,0,1,9.77-6.83,23.64,23.64,0,0,1,10.3-2.61,9.56,9.56,0,0,1,5.87,1.6,11.45,11.45,0,0,1,3.53,5Zm-32,27.34a13.19,13.19,0,0,0,1,5.39C90.3,89.24,91.75,90,94,90a8.9,8.9,0,0,0,4.7-1.86,27.82,27.82,0,0,0,4.75-4.43,52.65,52.65,0,0,0,4.38-5.93,56.21,56.21,0,0,0,3.63-6.57A47.9,47.9,0,0,0,113.86,65a17.2,17.2,0,0,0,.91-5,8,8,0,0,0-1.07-4.48c-.71-1.07-2.1-1.6-4.16-1.6a9.67,9.67,0,0,0-5,1.49,22.27,22.27,0,0,0-4.81,4,46.79,46.79,0,0,0-4.38,5.5,44,44,0,0,0-3.57,6.25,42.28,42.28,0,0,0-2.35,6.14A18.5,18.5,0,0,0,88.61,82.32Z"/><path d="M233.71,17.4a23.43,23.43,0,0,0-7.79,7.53,57.36,57.36,0,0,0-5.4,10.68q-2.29,5.93-4.21,12.76t-4.17,13.82A139,139,0,0,1,206.91,76a64.61,64.61,0,0,1-7.37,12.66l.22.21q5.34-3.21,11.47-7.21T223.51,73q6.15-4.64,11.91-9.87a95.45,95.45,0,0,0,10.41-11.05,66.32,66.32,0,0,0,7.74-12.17,39.88,39.88,0,0,0,3.84-13.08,5.53,5.53,0,0,1-2.51-2,6.08,6.08,0,0,1-.69-3.1A4.5,4.5,0,0,1,256,18a6.23,6.23,0,0,1,4-1.44,5.38,5.38,0,0,1,2.78.69,6,6,0,0,1,1.92,1.82,8.26,8.26,0,0,1,1.12,2.56,11.19,11.19,0,0,1,.38,2.83,25.66,25.66,0,0,1-2.46,10.73A51.5,51.5,0,0,1,257,45.91a94.11,94.11,0,0,1-9.82,10.46q-5.55,5.13-11.8,9.93t-12.7,9.13q-6.47,4.32-12.39,8t-11.05,6.67l-8.64,5-1-.75A62.47,62.47,0,0,0,195.91,82q2.46-6.51,4.43-13.3t3.9-13.5a105.38,105.38,0,0,1,4.65-13,65.21,65.21,0,0,1,6.67-11.9,42.91,42.91,0,0,1,9.93-10V20a60.82,60.82,0,0,1-6.73,2.25q-4.15,1.17-9,2.67T200,28.35a48.54,48.54,0,0,0-8.86,4.59,25.34,25.34,0,0,0-6.46,6,12.61,12.61,0,0,0-2.51,7.74,10,10,0,0,0,1.66,5.82q1.65,2.4,5.49,2.4a8.16,8.16,0,0,0,4.6-1.28,11.12,11.12,0,0,0,3.2-3.31A15,15,0,0,0,199,45.75a22.22,22.22,0,0,0,.58-5.07h1.29a24.77,24.77,0,0,1-.75,6.14,14.24,14.24,0,0,1-2.4,5.12,12.29,12.29,0,0,1-4.22,3.52,12.91,12.91,0,0,1-6.09,1.34,12.58,12.58,0,0,1-8.16-2.62C177,52.44,176,49.82,176,46.34a12.92,12.92,0,0,1,2.67-8.22,24.64,24.64,0,0,1,7.2-6,56.3,56.3,0,0,1,10.41-4.54q5.88-1.92,12.23-3.68t12.76-3.47a120.14,120.14,0,0,0,12-3.84Z"/><path d="M285.7,55l11.11-.64A45.65,45.65,0,0,1,294,59q-1.81,2.71-3.95,5.87t-4.32,6.51q-2.19,3.38-4,6.52a48.48,48.48,0,0,0-2.93,5.87,12.53,12.53,0,0,0-1.12,4.64,2.36,2.36,0,0,0,2.67,2.67c1.7,0,4-1,6.94-3a62.39,62.39,0,0,0,9.18-7.9q2-2,4.11-4.38t4-4.64c1.28-1.53,2.46-3,3.52-4.27s1.93-2.4,2.57-3.26l.75.43q-2.79,3.73-6.41,8.27A118.13,118.13,0,0,1,296.27,82a64.44,64.44,0,0,1-10.09,8.38,17.91,17.91,0,0,1-9.87,3.25A7.4,7.4,0,0,1,271,91.87a5.71,5.71,0,0,1-1.86-4.32,11.54,11.54,0,0,1,.1-1.6,4,4,0,0,1,.32-1.18h-.21a33.43,33.43,0,0,1-7.47,6.3,16.81,16.81,0,0,1-9,2.56,9.26,9.26,0,0,1-4.38-1,8.05,8.05,0,0,1-2.94-2.61A11.84,11.84,0,0,1,244,86.32a17.16,17.16,0,0,1-.54-4.32,21.57,21.57,0,0,1,2.89-10.47,39.83,39.83,0,0,1,7.26-9.45,37.71,37.71,0,0,1,9.77-6.83,23.61,23.61,0,0,1,10.3-2.61,9.56,9.56,0,0,1,5.87,1.6,11.44,11.44,0,0,1,3.52,5Zm-32,27.34a13.19,13.19,0,0,0,1,5.39c.67,1.53,2.12,2.29,4.32,2.29a8.9,8.9,0,0,0,4.7-1.86,27.82,27.82,0,0,0,4.75-4.43,52.65,52.65,0,0,0,4.38-5.93,56.21,56.21,0,0,0,3.63-6.57A47.9,47.9,0,0,0,278.92,65a17.2,17.2,0,0,0,.91-5,8,8,0,0,0-1.07-4.48c-.71-1.07-2.1-1.6-4.16-1.6a9.67,9.67,0,0,0-5,1.49,22.27,22.27,0,0,0-4.81,4,46.79,46.79,0,0,0-4.38,5.5,44,44,0,0,0-3.57,6.25,42.28,42.28,0,0,0-2.35,6.14A18.5,18.5,0,0,0,253.67,82.32Z"/><path d="M282.61,100.47q-5.66.11-8.49,3.09c-1.89,2-2.83,4.77-2.83,8.33a13.14,13.14,0,0,0,.85,4.75,11.27,11.27,0,0,0,2.41,3.79,10.91,10.91,0,0,0,3.73,2.51,12.8,12.8,0,0,0,5,.91,22.84,22.84,0,0,0,9.5-2,36,36,0,0,0,8.49-5.44,62.61,62.61,0,0,0,7.58-7.75q3.57-4.32,6.72-8.86t5.93-9q2.77-4.48,5.23-8l-.21-.21a39.63,39.63,0,0,1-3.79,3.9,32.7,32.7,0,0,1-4.38,3.31,24.38,24.38,0,0,1-4.91,2.35,16.82,16.82,0,0,1-5.5.9,7.83,7.83,0,0,1-6.67-3,11.46,11.46,0,0,1-2.3-7.1,23.78,23.78,0,0,1,2.67-10.62,37.12,37.12,0,0,1,6.94-9.72,38.29,38.29,0,0,1,9.61-7.1,22.76,22.76,0,0,1,10.57-2.77,11.86,11.86,0,0,1,6.41,1.49c1.56,1,2.77,2.81,3.63,5.45l2.45-4.6,10.89-.64q-5.76,9.82-11.31,19.86t-11.75,20a44.47,44.47,0,0,0,11.16-4.91,66.93,66.93,0,0,0,9.71-7.32,90.72,90.72,0,0,0,8.55-8.86q4-4.74,7.63-9.55l.64.32A126.65,126.65,0,0,1,359,73.94a91.51,91.51,0,0,1-9,9.23,67.83,67.83,0,0,1-10.25,7.53,47.43,47.43,0,0,1-11.53,5,74.16,74.16,0,0,1-8.7,12.07A55.6,55.6,0,0,1,308.87,117a49.58,49.58,0,0,1-12.49,6A47.46,47.46,0,0,1,282,125.13a38.87,38.87,0,0,1-7.48-.69,19.13,19.13,0,0,1-6.24-2.35,12.82,12.82,0,0,1-4.33-4.27,12.25,12.25,0,0,1-1.6-6.46,10.8,10.8,0,0,1,1.23-5.18,11.64,11.64,0,0,1,3.26-3.84,14.4,14.4,0,0,1,4.64-2.35,17.76,17.76,0,0,1,5.28-.8c.65,0,1.61.07,2.89.21l3,.32ZM309.19,82a11.66,11.66,0,0,0,1.07,5.23q1.07,2.13,4.7,2.13a8.15,8.15,0,0,0,4.59-1.6,25.68,25.68,0,0,0,4.59-4.11,43.75,43.75,0,0,0,4.27-5.71,56.53,56.53,0,0,0,3.52-6.41,42.28,42.28,0,0,0,2.35-6.14,18.29,18.29,0,0,0,.86-5,17.42,17.42,0,0,0-.16-2.3,8.2,8.2,0,0,0-.59-2.08,3.72,3.72,0,0,0-1.28-1.55,4.13,4.13,0,0,0-2.35-.58A12.46,12.46,0,0,0,323,57a33.9,33.9,0,0,0-6.89,7.47,48.08,48.08,0,0,0-5,9.24A23,23,0,0,0,309.19,82Z"/><path d="M404.64,53.92q-4.15,6.93-7.74,12.38T390.76,76a77.11,77.11,0,0,0-4,7.32,13.22,13.22,0,0,0-1.44,5.44c0,1.57.67,2.35,2,2.35a7.14,7.14,0,0,0,3.09-.91,29.41,29.41,0,0,0,3.85-2.34,50.12,50.12,0,0,0,4.16-3.37c1.42-1.28,2.78-2.56,4.06-3.84,1.56-1.64,3.11-3.29,4.64-5s3-3.29,4.27-4.85,2.51-3,3.58-4.33,2-2.44,2.67-3.36l.85.64Q416,67.16,412,71.91t-8.44,9.34a67.5,67.5,0,0,1-10,8.65A16.22,16.22,0,0,1,384.46,93a6.92,6.92,0,0,1-5.12-1.92,6.51,6.51,0,0,1-1.92-4.8,16,16,0,0,1,.37-3.63,8.22,8.22,0,0,1,.91-2.46l-.22-.21q-1.92,2-4.16,4.32a41.78,41.78,0,0,1-4.8,4.22,27.5,27.5,0,0,1-5.5,3.2A15.65,15.65,0,0,1,357.66,93a6.1,6.1,0,0,1-5-2.08,7.42,7.42,0,0,1-1.71-4.86q0-4,4.38-11.74t11.85-20l11.31-.42q-8.43,12.92-13.72,21.19t-5.28,12.33a3.29,3.29,0,0,0,.69,2.14,2.29,2.29,0,0,0,1.87.85,9.88,9.88,0,0,0,4.86-1.71,37.4,37.4,0,0,0,5.93-4.59A65.14,65.14,0,0,0,379,77.51a69,69,0,0,0,5.5-7.79l9.19-14.95Z"/><path d="M461.87,64q-3.31,4.48-7.1,8.86a116.19,116.19,0,0,1-9,9.19q-7.38,6.61-14.15,9.12a36.67,36.67,0,0,1-12.76,2.51q-6.09,0-9.61-3.63a12.91,12.91,0,0,1-3.52-9.39,19.13,19.13,0,0,1,3.09-10.14,37.25,37.25,0,0,1,7.8-9,42.1,42.1,0,0,1,10.3-6.41,26.47,26.47,0,0,1,10.62-2.45,12.49,12.49,0,0,1,7.16,1.76,5.67,5.67,0,0,1,2.56,5,7.23,7.23,0,0,1-1.76,4.7,17.94,17.94,0,0,1-4.54,3.84,34.72,34.72,0,0,1-6.24,3c-2.32.86-4.61,1.6-6.89,2.24s-4.41,1.18-6.41,1.61l-4.91,1.06a16.38,16.38,0,0,0-.53,3.85,10.81,10.81,0,0,0,2.56,7.47A9.07,9.07,0,0,0,425.67,90a22.42,22.42,0,0,0,9.88-2.67,45.22,45.22,0,0,0,10.84-7.79q4.16-3.95,8-8.27t6.73-8.06ZM438.7,56.69a2.58,2.58,0,0,0-.8-2.13,3.23,3.23,0,0,0-2.08-.64,10,10,0,0,0-5.77,2.24,32.53,32.53,0,0,0-5.82,5.5,50.11,50.11,0,0,0-4.8,6.83,23.84,23.84,0,0,0-2.72,6.25A32.7,32.7,0,0,0,425,71.91a36.54,36.54,0,0,0,7-4.49,23.08,23.08,0,0,0,4.85-5.34A10,10,0,0,0,438.7,56.69Z"/></svg>