<svg id="Layer_1" data-name="Layer 1" xmlns="http://www.w3.org/2000/svg" width="467.33" height="394.99" viewBox="0 0 467.33 394.99"><defs><style>.cls-1{fill:#000d7f;}.cls-2{fill:#0015cc;}.cls-3{fill:#fff;}</style></defs><title>logo_white</title><path class="cls-1" d="M18,298.1c24.33-37.1,58.55-67.94,99.73-84.8a184.91,184.91,0,0,1,70.38-13.86c40.07,0,81.35,16,113.09,35.62Q301,230,301,225A225.14,225.14,0,0,1,467.25,7.73l.08,0-1.88-.37q-18.22-3.61-37-5.48l-.91-.1Q409.29,0,390.63,0C208.51,0,56.16,127.5,18,298.1Z"/><path class="cls-2" d="M403,.77q12.38,0,24.5,1a297.51,297.51,0,0,1,37.95,5.58c.61.13,1.21.25,1.8.39A225.14,225.14,0,0,0,301,225q0,5.07.23,10.11c-31.74-19.65-73-35.62-113.09-35.62a184.91,184.91,0,0,0-70.38,13.86C154.33,90.4,268.2.77,403,.77Z"/><path class="cls-3" d="M368.78,64A224.42,224.42,0,0,1,467.25,7.73l.08,0-1.88-.37q-18.22-3.61-37-5.48A122.52,122.52,0,0,0,368.78,64Z"/><path class="cls-3" d="M90.43,316.51q-4.17,3.74-9.45,8.54t-10.62,9.88Q65,340,60.06,345t-8.6,9.07a16.46,16.46,0,0,1-1.28,3.69,11,11,0,0,1-2.14,3,11.17,11.17,0,0,1-2.83,2.08,6.88,6.88,0,0,1-3.25.8,12.85,12.85,0,0,1-1.44-.1.89.89,0,0,1-.91-1,1.27,1.27,0,0,1,.43-1c.28-.25.62-.59,1-1a5.34,5.34,0,0,0,1-1.82,10.31,10.31,0,0,0,.43-3.41,12.15,12.15,0,0,0-1.76-6.89,12.39,12.39,0,0,0-4.38-4.06,16.42,16.42,0,0,0-5.66-1.87,41.76,41.76,0,0,0-5.71-.42,14.9,14.9,0,0,0-3.73.64l-5.08,1.39c-1.81.49-3.66,1-5.55,1.38a23.73,23.73,0,0,1-5.28.64,24.6,24.6,0,0,1-3.63-.26A1.75,1.75,0,0,1,0,344.06a2.14,2.14,0,0,1,.75-1.71,6.84,6.84,0,0,1,3.15-1,62.3,62.3,0,0,1,6.83-.54q4.42-.15,11.9-.16a15,15,0,0,0,9.51-3.57,47.58,47.58,0,0,0,8.8-9.67,135.22,135.22,0,0,0,8.65-14q4.32-8,9-16.71a48.31,48.31,0,0,1-5.87-1.92,22.49,22.49,0,0,1-5.5-3.09,15.74,15.74,0,0,1-4.11-4.76,13.28,13.28,0,0,1-1.6-6.67,12.15,12.15,0,0,1,3.26-8.81Q48,268,54.13,268a17.44,17.44,0,0,1,3.1.27,7.73,7.73,0,0,1,2.56.9l-.43,1a13.28,13.28,0,0,0-2.4-.64,15.21,15.21,0,0,0-2.72-.22,13.36,13.36,0,0,0-5.18.91,9.7,9.7,0,0,0-3.58,2.45,9.9,9.9,0,0,0-2,3.53,13.48,13.48,0,0,0-.64,4.11,11.53,11.53,0,0,0,1.34,5.5,14.87,14.87,0,0,0,3.63,4.43,22.12,22.12,0,0,0,5.28,3.25,28.36,28.36,0,0,0,6.3,2,53.17,53.17,0,0,1,7.42-11A59.26,59.26,0,0,1,77,275.19a51.68,51.68,0,0,1,12.17-6.46,38.31,38.31,0,0,1,13.35-2.4,25.15,25.15,0,0,1,4.53.43,13.9,13.9,0,0,1,4.17,1.44,9,9,0,0,1,3.09,2.78,7.54,7.54,0,0,1,1.23,4.43A12.05,12.05,0,0,1,113,283a24.31,24.31,0,0,1-6.73,5.82A45.44,45.44,0,0,1,96.89,293a97.91,97.91,0,0,1-10.41,2.83,94.47,94.47,0,0,1-9.93,1.61q-4.69.48-8,.48-3.63,7.15-7.47,13.77A79.85,79.85,0,0,1,52.31,324a60.28,60.28,0,0,1-11.1,10,52.17,52.17,0,0,1-14.41,6.89v.21c2.13,0,4.59.05,7.36.16a31.6,31.6,0,0,1,7.9,1.28A16.84,16.84,0,0,1,48.47,346a9.31,9.31,0,0,1,3,6.62q4.17-4.49,9-9.4t9.93-9.76q5.07-4.86,10-9.4t9.34-8.27Zm17-43.56a5.4,5.4,0,0,0-1.45-3.74c-1-1.06-2.61-1.6-5-1.6a17.61,17.61,0,0,0-9.56,3.05,50.17,50.17,0,0,0-9,7.47,71.29,71.29,0,0,0-7.68,9.45q-3.42,5-5.66,9.07a70.54,70.54,0,0,0,7.15-.42,68.32,68.32,0,0,0,8.33-1.44A52.42,52.42,0,0,0,92.94,292a30.3,30.3,0,0,0,7.31-4.38,20.78,20.78,0,0,0,5.18-6.24A17.37,17.37,0,0,0,107.41,273Z"/><path class="cls-3" d="M120.64,306.48l11.11-.64a44.59,44.59,0,0,1-2.78,4.64q-1.81,2.72-4,5.87t-4.32,6.52q-2.19,3.36-4,6.51a50.78,50.78,0,0,0-2.93,5.87,12.57,12.57,0,0,0-1.12,4.64,2.36,2.36,0,0,0,2.67,2.67c1.7,0,4-1,6.94-3a61.88,61.88,0,0,0,9.18-7.9q2-2,4.11-4.37t4-4.65q1.92-2.29,3.53-4.27c1.06-1.32,1.92-2.4,2.56-3.26l.75.43q-2.79,3.74-6.41,8.28a119.79,119.79,0,0,1-8.76,9.66,63.89,63.89,0,0,1-10.09,8.38,17.92,17.92,0,0,1-9.87,3.26,7.4,7.4,0,0,1-5.29-1.77A5.71,5.71,0,0,1,104.1,339a11.54,11.54,0,0,1,.1-1.6,4,4,0,0,1,.32-1.18h-.21a32.91,32.91,0,0,1-7.47,6.3,16.82,16.82,0,0,1-9,2.57,9.26,9.26,0,0,1-4.38-1,8.17,8.17,0,0,1-2.94-2.62,11.84,11.84,0,0,1-1.65-3.74,17.16,17.16,0,0,1-.54-4.32A21.5,21.5,0,0,1,81.25,323a39.44,39.44,0,0,1,7.26-9.45,37.91,37.91,0,0,1,9.77-6.84,23.64,23.64,0,0,1,10.3-2.61,9.56,9.56,0,0,1,5.87,1.6,11.49,11.49,0,0,1,3.53,5Zm-32,27.33a13.19,13.19,0,0,0,1,5.39c.67,1.53,2.12,2.3,4.32,2.3a8.92,8.92,0,0,0,4.7-1.87,27.43,27.43,0,0,0,4.75-4.43,52.65,52.65,0,0,0,4.38-5.93,56.91,56.91,0,0,0,3.63-6.56,48.56,48.56,0,0,0,2.45-6.25,17.2,17.2,0,0,0,.91-5A8,8,0,0,0,113.7,307c-.71-1.07-2.1-1.6-4.16-1.6a9.67,9.67,0,0,0-5,1.49,22.27,22.27,0,0,0-4.81,4,46.79,46.79,0,0,0-4.38,5.5,44,44,0,0,0-3.57,6.25,42.28,42.28,0,0,0-2.35,6.14A18.62,18.62,0,0,0,88.61,333.81Z"/><path class="cls-3" d="M233.71,268.89a23.53,23.53,0,0,0-7.79,7.53,57.36,57.36,0,0,0-5.4,10.68q-2.29,5.92-4.21,12.76t-4.17,13.82a139.17,139.17,0,0,1-5.23,13.78,64.83,64.83,0,0,1-7.37,12.65l.22.21q5.34-3.19,11.47-7.2t12.28-8.65q6.15-4.65,11.91-9.88a95.45,95.45,0,0,0,10.41-11,66.32,66.32,0,0,0,7.74-12.17,39.88,39.88,0,0,0,3.84-13.08,5.47,5.47,0,0,1-2.51-2,6,6,0,0,1-.69-3.09,4.5,4.5,0,0,1,1.81-3.69,6.23,6.23,0,0,1,4-1.44,5.38,5.38,0,0,1,2.78.69,6,6,0,0,1,1.92,1.82,8.36,8.36,0,0,1,1.12,2.56,11.25,11.25,0,0,1,.38,2.83,25.66,25.66,0,0,1-2.46,10.73A51.24,51.24,0,0,1,257,297.4a94.11,94.11,0,0,1-9.82,10.46q-5.55,5.13-11.8,9.93t-12.7,9.13q-6.47,4.32-12.39,8t-11.05,6.67l-8.64,5-1-.75a62.47,62.47,0,0,0,6.3-12.38q2.46-6.51,4.43-13.29t3.9-13.51a106.56,106.56,0,0,1,4.65-13,65.89,65.89,0,0,1,6.67-11.9,43.11,43.11,0,0,1,9.93-10v-.32a61.08,61.08,0,0,1-6.73,2.24q-4.15,1.17-9,2.67T200,279.84a49.82,49.82,0,0,0-8.86,4.59,25.51,25.51,0,0,0-6.46,6,12.61,12.61,0,0,0-2.51,7.74A10,10,0,0,0,183.8,304q1.65,2.4,5.49,2.4a8.16,8.16,0,0,0,4.6-1.28,11.12,11.12,0,0,0,3.2-3.31,15,15,0,0,0,1.87-4.54,22.22,22.22,0,0,0,.58-5.07h1.29a24.77,24.77,0,0,1-.75,6.14,14.16,14.16,0,0,1-2.4,5.12,12.42,12.42,0,0,1-4.22,3.53,13,13,0,0,1-6.09,1.33,12.63,12.63,0,0,1-8.16-2.61c-2.18-1.75-3.26-4.36-3.26-7.85a12.94,12.94,0,0,1,2.67-8.22,24.47,24.47,0,0,1,7.2-6A55,55,0,0,1,196.23,279q5.88-1.92,12.23-3.69t12.76-3.47a117.58,117.58,0,0,0,12-3.84Z"/><path class="cls-3" d="M285.7,306.48l11.11-.64a44.59,44.59,0,0,1-2.78,4.64q-1.81,2.72-3.95,5.87t-4.32,6.52q-2.19,3.36-4,6.51a49.21,49.21,0,0,0-2.93,5.87,12.57,12.57,0,0,0-1.12,4.64,2.36,2.36,0,0,0,2.67,2.67c1.7,0,4-1,6.94-3a62.39,62.39,0,0,0,9.18-7.9q2-2,4.11-4.37t4-4.65c1.28-1.53,2.46-2.95,3.52-4.27s1.93-2.4,2.57-3.26l.75.43q-2.79,3.74-6.41,8.28a119.79,119.79,0,0,1-8.76,9.66,63.89,63.89,0,0,1-10.09,8.38,17.92,17.92,0,0,1-9.87,3.26,7.4,7.4,0,0,1-5.29-1.77,5.71,5.71,0,0,1-1.86-4.32,11.54,11.54,0,0,1,.1-1.6,4,4,0,0,1,.32-1.18h-.21a32.91,32.91,0,0,1-7.47,6.3,16.82,16.82,0,0,1-9,2.57,9.26,9.26,0,0,1-4.38-1,8.17,8.17,0,0,1-2.94-2.62,11.84,11.84,0,0,1-1.65-3.74,17.16,17.16,0,0,1-.54-4.32A21.5,21.5,0,0,1,246.31,323a39.44,39.44,0,0,1,7.26-9.45,37.74,37.74,0,0,1,9.77-6.84,23.61,23.61,0,0,1,10.3-2.61,9.56,9.56,0,0,1,5.87,1.6,11.48,11.48,0,0,1,3.52,5Zm-32,27.33a13.19,13.19,0,0,0,1,5.39c.67,1.53,2.12,2.3,4.32,2.3a8.92,8.92,0,0,0,4.7-1.87,27.43,27.43,0,0,0,4.75-4.43,52.65,52.65,0,0,0,4.38-5.93,56.91,56.91,0,0,0,3.63-6.56,48.56,48.56,0,0,0,2.45-6.25,17.2,17.2,0,0,0,.91-5,8,8,0,0,0-1.07-4.48c-.71-1.07-2.1-1.6-4.16-1.6a9.67,9.67,0,0,0-5,1.49,22.27,22.27,0,0,0-4.81,4,46.79,46.79,0,0,0-4.38,5.5,44,44,0,0,0-3.57,6.25,42.28,42.28,0,0,0-2.35,6.14A18.62,18.62,0,0,0,253.67,333.81Z"/><path class="cls-3" d="M282.61,352q-5.66.1-8.49,3.1t-2.83,8.32a13.14,13.14,0,0,0,.85,4.75,11.27,11.27,0,0,0,2.41,3.79,10.91,10.91,0,0,0,3.73,2.51,12.8,12.8,0,0,0,5,.91,22.84,22.84,0,0,0,9.5-2,36,36,0,0,0,8.49-5.44,63.21,63.21,0,0,0,7.58-7.74q3.57-4.33,6.72-8.86t5.93-9q2.77-4.49,5.23-8l-.21-.22a38.56,38.56,0,0,1-3.79,3.9,31.87,31.87,0,0,1-4.38,3.31,24.38,24.38,0,0,1-4.91,2.35,16.83,16.83,0,0,1-5.5.91,7.84,7.84,0,0,1-6.67-3.05,11.46,11.46,0,0,1-2.3-7.1,23.81,23.81,0,0,1,2.67-10.62,37.46,37.46,0,0,1,6.94-9.72,38.29,38.29,0,0,1,9.61-7.1,22.76,22.76,0,0,1,10.57-2.77,12,12,0,0,1,6.41,1.49c1.56,1,2.77,2.81,3.63,5.45l2.45-4.59,10.89-.64q-5.76,9.82-11.31,19.85t-11.75,20a44.47,44.47,0,0,0,11.16-4.91,66.86,66.86,0,0,0,9.71-7.31,90.84,90.84,0,0,0,8.55-8.87q4-4.74,7.63-9.55l.64.32A126.65,126.65,0,0,1,359,325.43a91.51,91.51,0,0,1-9,9.23,67.83,67.83,0,0,1-10.25,7.53,47.46,47.46,0,0,1-11.53,5,74.51,74.51,0,0,1-8.7,12.06,55.25,55.25,0,0,1-10.63,9.29,49.58,49.58,0,0,1-12.49,6A47.46,47.46,0,0,1,282,376.62a38.87,38.87,0,0,1-7.48-.69,19.13,19.13,0,0,1-6.24-2.35,12.73,12.73,0,0,1-4.33-4.27,12.25,12.25,0,0,1-1.6-6.46,10.8,10.8,0,0,1,1.23-5.18,11.64,11.64,0,0,1,3.26-3.84,14.4,14.4,0,0,1,4.64-2.35,18.08,18.08,0,0,1,5.28-.8c.65,0,1.61.07,2.89.21l3,.32Zm26.58-18.47a11.63,11.63,0,0,0,1.07,5.23c.71,1.42,2.28,2.14,4.7,2.14a8.17,8.17,0,0,0,4.59-1.61,24.93,24.93,0,0,0,4.59-4.11,43.09,43.09,0,0,0,4.27-5.71,56.42,56.42,0,0,0,3.52-6.4,43.18,43.18,0,0,0,2.35-6.14,18.42,18.42,0,0,0,.86-5,17.15,17.15,0,0,0-.16-2.29,8.16,8.16,0,0,0-.59-2.09,3.63,3.63,0,0,0-1.28-1.54,4.13,4.13,0,0,0-2.35-.59,12.46,12.46,0,0,0-7.79,3,33.73,33.73,0,0,0-6.89,7.48,47.71,47.71,0,0,0-5,9.23A23,23,0,0,0,309.19,333.49Z"/><path class="cls-3" d="M404.64,305.41q-4.15,6.94-7.74,12.38t-6.14,9.67a77.1,77.1,0,0,0-4,7.31,13.22,13.22,0,0,0-1.44,5.44c0,1.57.67,2.35,2,2.35a7.25,7.25,0,0,0,3.09-.9,30.7,30.7,0,0,0,3.85-2.35,46.34,46.34,0,0,0,4.16-3.37c1.42-1.28,2.78-2.56,4.06-3.84q2.34-2.46,4.64-5t4.27-4.86q2-2.36,3.58-4.33t2.67-3.36l.85.64Q416,318.65,412,323.4t-8.44,9.34a66.92,66.92,0,0,1-10,8.65,16.24,16.24,0,0,1-9.08,3.1,6.93,6.93,0,0,1-5.12-1.93,6.51,6.51,0,0,1-1.92-4.8,16,16,0,0,1,.37-3.63,8.22,8.22,0,0,1,.91-2.46l-.22-.21q-1.92,2-4.16,4.32a40.84,40.84,0,0,1-4.8,4.22,27.5,27.5,0,0,1-5.5,3.2,15.65,15.65,0,0,1-6.36,1.29,6.11,6.11,0,0,1-5-2.09,7.39,7.39,0,0,1-1.71-4.85q0-4.07,4.38-11.75t11.85-20l11.31-.43q-8.43,12.91-13.72,21.19t-5.28,12.33a3.29,3.29,0,0,0,.69,2.14,2.29,2.29,0,0,0,1.87.85,9.88,9.88,0,0,0,4.86-1.71,36.25,36.25,0,0,0,5.93-4.59A64.09,64.09,0,0,0,379,329a68.12,68.12,0,0,0,5.5-7.79l9.19-14.95Z"/><path class="cls-3" d="M461.87,315.45q-3.31,4.47-7.1,8.86a114.49,114.49,0,0,1-9,9.18q-7.38,6.61-14.15,9.13a36.9,36.9,0,0,1-12.76,2.51q-6.09,0-9.61-3.63a12.93,12.93,0,0,1-3.52-9.4A19.13,19.13,0,0,1,408.8,322a37.25,37.25,0,0,1,7.8-9,42.41,42.41,0,0,1,10.3-6.41,26.64,26.64,0,0,1,10.62-2.45,12.49,12.49,0,0,1,7.16,1.76,5.67,5.67,0,0,1,2.56,5,7.23,7.23,0,0,1-1.76,4.7,18.14,18.14,0,0,1-4.54,3.85,34.71,34.71,0,0,1-6.24,3c-2.32.86-4.61,1.61-6.89,2.25s-4.41,1.17-6.41,1.6-3.63.78-4.91,1.07a15.73,15.73,0,0,0-.53,3.84,10.81,10.81,0,0,0,2.56,7.47,9,9,0,0,0,7.15,2.89,22.55,22.55,0,0,0,9.88-2.67,45.56,45.56,0,0,0,10.84-7.8q4.16-3.94,8-8.27t6.73-8.06Zm-23.17-7.27a2.59,2.59,0,0,0-.8-2.13,3.23,3.23,0,0,0-2.08-.64,10.07,10.07,0,0,0-5.77,2.24,32.89,32.89,0,0,0-5.82,5.5,50.11,50.11,0,0,0-4.8,6.83,23.84,23.84,0,0,0-2.72,6.25A32.32,32.32,0,0,0,425,323.4a37,37,0,0,0,7-4.48,23.73,23.73,0,0,0,4.85-5.34A10.09,10.09,0,0,0,438.7,308.18Z"/></svg>